<svg xmlns="http://www.w3.org/2000/svg" width="22" height="17.281" viewBox="0 0 22 17.281">
  <metadata><?xpacket begin="﻿" id="W5M0MpCehiHzreSzNTczkc9d"?>
<x:xmpmeta xmlns:x="adobe:ns:meta/" x:xmptk="Adobe XMP Core 5.6-c138 79.159824, 2016/09/14-01:09:01        ">
   <rdf:RDF xmlns:rdf="http://www.w3.org/1999/02/22-rdf-syntax-ns#">
      <rdf:Description rdf:about=""/>
   </rdf:RDF>
</x:xmpmeta>
                                                                                                    
                                                                                                    
                                                                                                    
                                                                                                    
                                                                                                    
                                                                                                    
                                                                                                    
                                                                                                    
                                                                                                    
                                                                                                    
                                                                                                    
                                                                                                    
                                                                                                    
                                                                                                    
                                                                                                    
                                                                                                    
                                                                                                    
                                                                                                    
                                                                                                    
                                                                                                    
                           
<?xpacket end="w"?></metadata>
<defs>
    <style>
      .cls-1 {
        fill: #fff;
        fill-rule: evenodd;
      }
    </style>
  </defs>
  <path id="Menu_Icon" data-name="Menu Icon" class="cls-1" d="M306.956,36.815a0.4,0.4,0,0,0-.393-0.393,0.411,0.411,0,0,0-.283.111l-3.537,3.537a0.415,0.415,0,0,0,0,.565l3.537,3.538a0.412,0.412,0,0,0,.283.111,0.4,0.4,0,0,0,.393-0.393V36.815Zm17.295,9.434a0.4,0.4,0,0,0-.393-0.393H302.632a0.4,0.4,0,0,0-.393.393v2.358a0.4,0.4,0,0,0,.393.393h21.226a0.4,0.4,0,0,0,.393-0.393V46.248Zm0-4.717a0.4,0.4,0,0,0-.393-0.393H310.494a0.4,0.4,0,0,0-.394.393V43.89a0.4,0.4,0,0,0,.394.393h13.364a0.4,0.4,0,0,0,.393-0.393V41.532Zm0-4.717a0.4,0.4,0,0,0-.393-0.393H310.494a0.4,0.4,0,0,0-.394.393v2.358a0.4,0.4,0,0,0,.394.393h13.364a0.4,0.4,0,0,0,.393-0.393V36.815Zm0-4.717a0.4,0.4,0,0,0-.393-0.393H302.632a0.4,0.4,0,0,0-.393.393v2.358a0.4,0.4,0,0,0,.393.393h21.226a0.4,0.4,0,0,0,.393-0.393V32.1Z" transform="translate(-302.25 -31.719)"/>
</svg>
