<svg xmlns="http://www.w3.org/2000/svg" width="22" height="17.281" viewBox="0 0 22 17.281"><defs><style>.cls-1{fill:#fff;fill-rule:evenodd}</style></defs><path id="Menu_Icon" data-name="Menu Icon" class="cls-1" d="M306.956 36.815a.4.4 0 0 0-.393-.393.411.411 0 0 0-.283.111l-3.537 3.537a.415.415 0 0 0 0 .565l3.537 3.538a.412.412 0 0 0 .283.111.4.4 0 0 0 .393-.393v-7.076zm17.295 9.434a.4.4 0 0 0-.393-.393h-21.226a.4.4 0 0 0-.393.393v2.358a.4.4 0 0 0 .393.393h21.226a.4.4 0 0 0 .393-.393v-2.359zm0-4.717a.4.4 0 0 0-.393-.393h-13.364a.4.4 0 0 0-.394.393v2.358a.4.4 0 0 0 .394.393h13.364a.4.4 0 0 0 .393-.393v-2.358zm0-4.717a.4.4 0 0 0-.393-.393h-13.364a.4.4 0 0 0-.394.393v2.358a.4.4 0 0 0 .394.393h13.364a.4.4 0 0 0 .393-.393v-2.358zm0-4.717a.4.4 0 0 0-.393-.393h-21.226a.4.4 0 0 0-.393.393v2.358a.4.4 0 0 0 .393.393h21.226a.4.4 0 0 0 .393-.393V32.1z" transform="translate(-302.25 -31.719)"/></svg>