<svg xmlns="http://www.w3.org/2000/svg" width="16" height="16" viewBox="0 0 16 16"><defs><style>.cls-1{fill:#6d6e76;fill-rule:evenodd;filter:url(#filter)}</style><filter id="filter" x="1233" y="121" width="16" height="16" filterUnits="userSpaceOnUse"><feFlood result="flood" flood-color="#a6a6a6"/><feComposite result="composite" operator="in" in2="SourceGraphic"/><feBlend result="blend" in2="SourceGraphic"/></filter></defs><path id="refresh" class="cls-1" d="M1236.9 136.4s1.04-1.641 1.12-1.714c-1.51-1.516-5.28-5.706-1.3-9.825a5.847 5.847 0 0 1 8.47 0 6.453 6.453 0 0 1 0 8.9l1.63 1.306a8.6 8.6 0 0 0-.22-11.666 7.833 7.833 0 0 0-11.29 0c-5.99 6.004 1.59 12.999 1.59 12.999zm6.11.583l.02-5 5.98 5.012z" transform="translate(-1233 -121)"/></svg>